# xmcd
#
# Track frame offsets:
#	150
#	19061
#	38650
#	57884
#	81794
#	97693
#	119454
#	137087
#	154622
#	175243
#	193650
#	212762
#	232129
#
# Disc length: 3372 seconds
#
# Revision: 1
# Processed by: cddbd v1.5.2PL0 Copyright (c) Steve Scherf et al.
# Submitted via: audiograbber 1.83.01
#
DISCID=a60d2a0d
DTITLE=Josh Groban - Noël
DYEAR=1900
DGENRE=Christmas
TTITLE0=Silent Night
TTITLE1=Little Drummer Boy
TTITLE2=I'll Be Home For Christmas
TTITLE3=Ave Maria
TTITLE4=Angels We Have Heard On High
TTITLE5=Thankful
TTITLE6=The Christmas Song
TTITLE7=What Child Is This?
TTITLE8=The First Noël
TTITLE9=Petit Papa Noel
TTITLE10=It Came Upon A Midnight Clear
TTITLE11=Panis Angelicus
TTITLE12=O Come All Ye Faithful
EXTD=
EXTT0=
EXTT1=
EXTT2=
EXTT3=
EXTT4=
EXTT5=
EXTT6=
EXTT7=
EXTT8=
EXTT9=
EXTT10=
EXTT11=
EXTT12=
PLAYORDER=
